# xmcd
#
# Track frame offsets: 
#        150
#        17955
#        38528
#        58484
#        87214
#        107186
#        124527
#        140028
#        159553
#
# Disc length: 2319 seconds
#
# Revision: 0
# Processed by: cddbd v1.5.2PL0 Copyright (c) Steve Scherf et al.
# Submitted via: ExactAudioCopy v1.0b1
#
DISCID=79090d09
DTITLE=Commodores - Hot On The Tracks
DYEAR=1976
DGENRE=Funk
TTITLE0=Let's Get Started
TTITLE1=Girl, I Think The World About You
TTITLE2=High On Sunshine
TTITLE3=Just To Be Close To You
TTITLE4=Fancy Dancer
TTITLE5=Come Inside
TTITLE6=Thumpin' Music
TTITLE7=Captain Quickdraw
TTITLE8=Can't Let You Tease Me
EXTD=
EXTT0=
EXTT1=
EXTT2=
EXTT3=
EXTT4=
EXTT5=
EXTT6=
EXTT7=
EXTT8=
PLAYORDER=
